#!OML:ASF F:\twosubjects\two\Thursday\Session 1\Rory.ASF
:FULLY-SPECIFIED
:DEGREES
438
root 7.76012 10.4225 12.3954 155.002 -14.1152 186.348
lowerback 39.8162 4.7705 1.08729
upperback 17.4993 -0.166541 -2.06825
thorax 0.163882 -2.56154 -2.68992
lowerneck -8.1039 -9.12175 -9.99005
upperneck -17.1531 -11.9792 19.3839
head -1.79613 -7.11527 7.39803
rclavicle 2.8625e-014 4.77083e-015
rhumerus -1.76216 23.4379 -70.0957
rradius 76.5491
rwrist 1.37017
rhand -34.6118 39.0982
rfingers 7.12502
rthumb -7.7701 9.261
lclavicle 2.8625e-014 4.77083e-015
lhumerus -3.68024 -24.2018 49.1998
lradius 98.4663
lwrist -9.38396
lhand -12.7111 17.2456
lfingers 7.12502
lthumb 13.3717 46.7965
rfemur -53.0109 -3.13684 -8.8205
rtibia 79.4479
rfoot 12.3792 -9.97645
rtoes -11.3221
lfemur -59.6906 21.3702 8.17026
ltibia 70.8915
lfoot 21.672 2.94271
ltoes 17.5873
439
root 7.7631 10.4097 12.4017 154.414 -14.339 186.441
lowerback 40.0192 4.91861 0.983844
upperback 17.642 -0.099324 -1.9966
thorax 0.265204 -2.57421 -2.58825
lowerneck -8.25361 -9.28004 -10.4052
upperneck -16.4704 -12.1119 19.9729
head -1.46875 -7.12252 7.58545
rclavicle -1.19271e-014 -3.49861e-014
rhumerus -1.42997 23.0207 -70.1424
rradius 76.0118
rwrist 1.22401
rhand -34.5434 39.2575
rfingers 7.12502
rthumb -7.70407 9.4178
lclavicle -1.19271e-014 -3.49861e-014
lhumerus -3.00703 -24.4706 48.9819
lradius 98.1628
lwrist -9.3045
lhand -13.0431 17.2338
lfingers 7.12502
lthumb 13.0517 46.8054
rfemur -52.3956 -3.10481 -8.89158
rtibia 79.5221
rfoot 12.0662 -10.2611
rtoes -10.1332
lfemur -59.2474 20.7127 8.37605
ltibia 70.9442
lfoot 21.5831 3.24952
ltoes 18.6809
440
root 7.7636 10.4096 12.406 154.074 -14.3845 186.945
lowerback 39.827 4.82553 1.32771
upperback 17.6616 -0.0558527 -2.00854
thorax 0.354922 -2.51628 -2.79606
lowerneck -7.99149 -9.36598 -10.5439
upperneck -16.1056 -12.1887 20.4813
head -1.33295 -7.14816 7.75011
rclavicle 5.80451e-014 -7.79236e-014
rhumerus -1.60198 22.6419 -70.5092
rradius 75.7303
rwrist 1.11645
rhand -34.4621 39.5505
rfingers 7.12502
rthumb -7.62558 9.708
lclavicle 5.80451e-014 -7.79236e-014
lhumerus -2.30756 -24.7878 48.6355
lradius 97.7319
lwrist -9.33755
lhand -13.7664 17.4402
lfingers 7.12502
lthumb 12.3544 47.0552
rfemur -52.005 -3.03486 -8.44698
rtibia 79.5065
rfoot 11.8506 -10.6152
rtoes -7.88361
lfemur -59.1313 20.3333 8.89747
ltibia 70.8996
lfoot 21.6558 3.15413
ltoes 18.4355
441
root 7.7629 10.4112 12.406 154.021 -14.3877 187.329
lowerback 39.3069 4.75019 1.5316
upperback 17.6797 0.0325465 -2.07545
thorax 0.379544 -2.41295 -2.99749
lowerneck -7.31631 -9.46917 -10.6486
upperneck -15.989 -12.3014 20.9307
head -1.33814 -7.21873 7.9255
rclavicle -2.38542e-014 -5.56597e-014
rhumerus -1.80369 22.7201 -70.6164
rradius 75.2713
rwrist 0.733909
rhand -34.3989 38.7767
rfingers 7.12502
rthumb -7.56458 8.93202
lclavicle -2.38542e-014 -5.56597e-014
lhumerus -1.67821 -25.0212 48.3433
lradius 97.3967
lwrist -9.15993
lhand -13.8325 17.4662
lfingers 7.12502
lthumb 12.2906 47.085
rfemur -51.9631 -3.01922 -8.07424
rtibia 79.5404
rfoot 11.7307 -10.8027
rtoes -5.97052
lfemur -59.4024 20.8098 8.95713
ltibia 70.8875
lfoot 21.9444 2.42677
ltoes 17.7299
442
root 7.76832 10.4254 12.4294 153.738 -14.3612 187.639
lowerback 39.2567 4.81017 1.63577
upperback 17.6212 0.183306 -2.06514
thorax 0.341379 -2.31927 -3.08761
lowerneck -6.85515 -9.63693 -10.5239
upperneck -15.7113 -12.5272 21.0262
head -1.29503 -7.32315 7.92524
rclavicle -1.27222e-014 2.70347e-014
rhumerus -1.82575 22.8512 -70.5217
rradius 74.741
rwrist 0.244784
rhand -34.5085 37.871
rfingers 7.12502
rthumb -7.67035 8.03007
lclavicle -1.27222e-014 2.70347e-014
lhumerus -1.02111 -25.3338 48.0975
lradius 97.0388
lwrist -8.7068
lhand -13.0198 17.3874
lfingers 7.12502
lthumb 13.0741 46.9576
rfemur -51.6826 -2.87486 -7.67114
rtibia 79.4597
rfoot 11.772 -10.9153
rtoes -6.13084
lfemur -59.0754 20.2192 9.44736
ltibia 70.7353
lfoot 21.86 2.8473
ltoes 18.1468
